<?xml version="1.0" standalone="no"?>
<!DOCTYPE svg PUBLIC "-//W3C//DTD SVG 20010904//EN"
 "http://www.w3.org/TR/2001/REC-SVG-20010904/DTD/svg10.dtd">
<svg version="1.0" xmlns="http://www.w3.org/2000/svg"
 width="626.000000pt" height="626.000000pt" viewBox="0 0 626.000000 626.000000"
 preserveAspectRatio="xMidYMid meet">

<g transform="translate(0.000000,626.000000) scale(0.100000,-0.100000)"
fill="#000000" stroke="none">
<path d="M1242 4909 c-96 -19 -177 -83 -224 -179 l-23 -45 -3 -1190 c-2 -829
1 -1206 8 -1242 14 -67 62 -138 121 -180 95 -67 -32 -64 2035 -61 1782 3 1871
4 1916 21 66 26 132 88 165 155 l28 57 0 1220 0 1220 -28 57 c-33 67 -80 111
-157 147 l-55 26 -1870 1 c-1028 1 -1889 -2 -1913 -7z m3748 -269 c20 -20 20
-33 20 -1175 0 -1142 0 -1155 -20 -1175 -20 -20 -33 -20 -1860 -20 -1827 0
-1840 0 -1860 20 -20 20 -20 33 -20 1173 0 1200 -1 1175 40 1190 8 3 840 6
1848 6 1819 1 1832 1 1852 -19z"/>
<path d="M3365 4021 c-33 -14 -45 -33 -225 -346 -95 -165 -203 -352 -240 -415
-116 -198 -141 -249 -134 -278 9 -39 58 -82 94 -82 59 0 58 -2 560 874 82 143
90 180 48 222 -26 26 -73 38 -103 25z"/>
<path d="M2243 3747 c-235 -235 -243 -244 -243 -282 0 -38 8 -47 243 -282 229
-229 245 -243 279 -243 52 0 88 33 95 88 l6 43 -192 192 c-105 106 -191 197
-191 202 0 5 86 95 190 200 204 205 208 211 175 276 -9 16 -27 34 -41 39 -63
24 -66 23 -321 -233z"/>
<path d="M3691 3976 c-30 -17 -50 -53 -51 -90 0 -25 28 -58 190 -221 105 -105
190 -195 190 -200 0 -5 -86 -96 -191 -202 l-192 -192 6 -42 c7 -53 33 -79 86
-86 l43 -6 244 244 c236 237 244 246 244 284 0 38 -8 47 -243 282 -259 260
-264 263 -326 229z"/>
<path d="M812 1653 c4 -167 17 -208 82 -258 76 -58 -54 -55 2236 -55 2290 0
2160 -3 2236 55 65 50 78 91 82 258 l4 147 -791 0 -790 0 -3 -50 c-2 -28 -6
-50 -10 -50 -5 0 -336 0 -738 0 l-730 0 0 50 0 50 -791 0 -791 0 4 -147z"/>
</g>
</svg>
