<?xml version="1.0" standalone="no"?>
<!DOCTYPE svg PUBLIC "-//W3C//DTD SVG 20010904//EN"
 "http://www.w3.org/TR/2001/REC-SVG-20010904/DTD/svg10.dtd">
<svg version="1.0" xmlns="http://www.w3.org/2000/svg"
 width="260.000000pt" height="260.000000pt" viewBox="0 0 260.000000 260.000000"
 preserveAspectRatio="xMidYMid meet">
<metadata>
Created by potrace 1.11, written by Peter Selinger 2001-2013
</metadata>
<g transform="translate(0.000000,260.000000) scale(0.100000,-0.100000)"
fill="#000000" stroke="none">
<path d="M1413 2448 c-36 -12 -60 -25 -56 -31 3 -5 1 -7 -4 -4 -6 4 -18 -2
-28 -13 -9 -10 -23 -16 -29 -14 -7 3 -32 -2 -56 -10 -23 -8 -51 -13 -61 -11
-10 2 -22 -1 -25 -7 -4 -7 -2 -8 4 -4 7 4 12 2 12 -3 0 -6 -6 -11 -14 -11 -8
0 -17 -7 -20 -16 -3 -8 -9 -13 -13 -11 -10 5 -63 -50 -55 -57 3 -3 0 -6 -7 -6
-7 0 -17 -13 -22 -30 -6 -16 -15 -30 -20 -30 -5 0 -8 -3 -7 -7 3 -14 -13 -53
-20 -49 -9 5 -7 -127 2 -173 4 -18 13 -48 21 -67 8 -19 12 -44 9 -56 -3 -13
-8 -39 -10 -58 -2 -19 -7 -42 -10 -50 -3 -8 -7 -35 -9 -60 -2 -25 -9 -67 -15
-95 -6 -27 -12 -64 -14 -81 -1 -17 -5 -35 -8 -40 -12 -18 0 -134 15 -158 10
-15 12 -27 6 -33 -6 -6 -4 -15 8 -24 17 -13 17 -13 3 6 -14 19 -14 19 3 6 10
-8 16 -22 14 -32 -3 -11 0 -16 8 -13 7 3 16 -4 20 -15 3 -12 12 -21 18 -21 7
0 6 -4 -3 -10 -13 -8 -13 -10 1 -10 9 0 24 -11 32 -23 8 -13 35 -43 59 -67 23
-25 38 -41 32 -37 -7 4 -18 -1 -25 -11 -12 -15 -12 -16 1 -5 10 8 21 9 30 2
13 -8 13 -10 0 -19 -8 -5 -11 -10 -7 -10 4 0 0 -8 -10 -19 -17 -17 -89 -32
-152 -31 -17 0 -22 -4 -17 -16 4 -12 2 -15 -9 -11 -17 7 -30 -9 -15 -18 6 -4
8 -11 4 -16 -3 -5 -10 -7 -15 -4 -9 6 -18 -9 -24 -42 -1 -10 -7 -17 -12 -16
-5 1 -10 -4 -10 -11 0 -21 -44 -87 -54 -80 -5 3 -9 2 -8 -3 4 -22 -2 -34 -13
-27 -7 4 -10 4 -6 -1 9 -10 -19 -65 -33 -65 -6 0 -8 -3 -6 -8 3 -4 -4 -15 -13
-25 -18 -18 -19 -18 -30 2 -6 12 -8 21 -4 21 3 0 -5 15 -19 34 -15 18 -23 36
-20 40 4 3 1 6 -6 6 -8 0 -11 8 -8 20 3 11 0 18 -7 17 -6 -1 -10 4 -8 11 1 6
-2 12 -8 12 -5 0 -7 6 -4 14 3 7 -2 16 -11 20 -9 3 -13 11 -9 17 4 8 3 9 -4 5
-12 -7 -57 38 -57 57 0 7 6 18 15 25 13 12 13 12 0 6 -13 -7 -13 -6 -1 9 13
17 16 29 25 108 4 42 22 79 37 79 6 0 8 3 6 8 -6 9 19 33 26 25 3 -3 3 -11 1
-18 -3 -7 -1 -15 4 -19 5 -3 7 5 6 17 -1 12 -3 28 -3 35 -1 7 -5 11 -10 8 -5
-3 -12 1 -15 10 -4 10 -2 13 7 8 7 -4 9 -3 4 2 -5 5 -13 10 -18 10 -5 1 -10 2
-11 4 -12 9 -48 4 -53 -9 -6 -14 -8 -13 -21 4 -15 19 -15 19 -9 -7 5 -20 2
-29 -13 -37 -11 -6 -23 -7 -28 -3 -5 4 -2 -1 5 -10 11 -15 10 -20 -4 -34 -14
-15 -18 -15 -26 -3 -7 11 -24 61 -29 89 -17 77 -27 147 -23 153 2 4 -3 7 -12
7 -9 0 -13 5 -10 10 3 6 1 10 -6 10 -8 0 -6 5 5 13 16 12 16 13 -2 13 -13 0
-19 -6 -17 -17 4 -18 -31 -34 -41 -18 -8 14 -21 11 -28 -7 -3 -8 -2 -12 4 -9
11 7 11 11 13 -80 1 -38 6 -73 12 -77 5 -4 6 -10 3 -14 -12 -11 -56 49 -53 73
1 12 -2 20 -6 17 -11 -7 -29 37 -21 51 3 6 -1 5 -9 -2 -16 -13 -45 -1 -36 14
3 5 0 10 -8 10 -8 0 -12 -4 -9 -8 3 -5 -5 -18 -17 -30 -25 -25 -21 -51 17
-110 13 -21 23 -39 22 -40 -27 -7 -39 -5 -35 6 4 8 -1 11 -13 8 -10 -3 -21 0
-24 6 -5 7 0 9 11 5 15 -5 16 -4 3 5 -24 15 -70 6 -86 -18 -9 -12 -19 -19 -23
-17 -4 3 -8 -1 -8 -9 0 -11 4 -12 14 -4 12 11 18 2 14 -24 0 -4 5 -6 11 -5 7
2 12 -3 10 -11 -2 -9 3 -11 13 -7 11 4 19 -2 25 -20 6 -14 14 -22 20 -19 5 3
10 1 10 -6 0 -7 -8 -9 -23 -4 -12 4 -34 9 -50 12 -21 4 -25 8 -17 18 9 10 7
13 -7 10 -10 -2 -20 -4 -22 -4 -3 -1 0 -6 7 -13 14 -14 16 -32 3 -24 -5 4 -7
-6 -5 -21 3 -16 5 -33 6 -40 1 -7 4 -11 7 -10 3 1 22 -5 41 -12 41 -16 46 -18
60 -20 6 0 10 -7 10 -15 0 -8 5 -18 12 -22 7 -4 8 -3 4 4 -4 7 -1 12 7 12 16
0 30 -27 22 -41 -4 -5 2 -6 11 -2 14 5 16 2 10 -20 -3 -14 -2 -29 4 -32 6 -4
7 1 3 12 -7 17 -6 17 17 2 25 -16 29 -33 10 -35 -5 -1 -13 -3 -17 -4 -5 -1
-12 -1 -18 0 -5 1 -6 -2 -2 -6 11 -11 58 -13 51 -2 -3 4 0 8 5 8 20 0 26 -5
28 -24 2 -11 6 -22 8 -24 3 -3 -3 -11 -13 -19 -16 -12 -16 -13 2 -6 15 5 18 3
13 -10 -3 -9 -2 -17 3 -17 6 0 10 -5 10 -11 0 -5 -4 -7 -10 -4 -6 3 -7 -1 -4
-9 3 -9 10 -13 15 -10 5 3 9 2 8 -3 -1 -4 0 -10 1 -13 1 -3 3 -12 5 -20 1 -8
13 -41 25 -73 12 -32 19 -64 16 -72 -3 -8 -2 -15 3 -15 14 0 34 -58 28 -80 -3
-11 -1 -18 4 -14 9 5 33 -45 25 -53 -2 -3 2 -12 10 -21 8 -10 15 -21 16 -27 1
-5 14 -32 30 -59 19 -32 24 -47 14 -43 -10 4 -13 1 -9 -8 3 -8 9 -13 13 -10 4
3 14 -3 21 -12 12 -14 12 -16 0 -8 -10 5 -12 4 -7 -4 4 -6 12 -9 17 -5 6 3 20
-3 32 -14 32 -30 87 -41 138 -30 24 5 54 10 67 11 20 1 27 9 23 31 -1 5 8 6
19 3 17 -4 19 -3 10 8 -8 9 -8 15 0 20 16 10 30 -4 24 -23 -5 -14 -4 -14 4 -2
6 8 8 19 4 25 -10 16 -11 36 -1 29 5 -3 9 1 9 9 0 8 7 17 14 20 15 6 12 -16
-5 -39 -5 -6 -7 -13 -4 -16 3 -2 -4 -29 -15 -59 -11 -29 -20 -55 -20 -56 0 -2
322 -3 715 -3 393 0 715 2 715 4 0 2 -5 28 -10 57 -11 57 -17 118 -26 259 -3
47 -11 143 -18 213 -13 119 -16 131 -42 159 -16 17 -24 28 -19 25 6 -3 17 -1
25 4 11 7 8 8 -12 5 -30 -5 -110 22 -103 34 3 5 -4 6 -14 3 -17 -4 -19 0 -18
28 1 22 -2 33 -11 31 -6 -1 -12 5 -12 13 0 8 -5 15 -11 15 -5 0 -7 -5 -3 -12
5 -7 3 -8 -5 -4 -7 5 -10 15 -7 23 3 8 2 11 -3 8 -6 -3 -14 3 -20 12 -6 10
-11 14 -11 10 0 -4 -15 3 -33 17 -19 14 -37 23 -42 18 -5 -4 -5 -2 -1 5 10 18
78 35 87 22 3 -6 8 -2 11 9 4 13 20 25 47 33 22 7 41 15 41 19 0 11 50 31 61
25 5 -4 9 1 9 11 0 13 3 14 14 5 11 -9 16 -9 22 0 4 8 3 9 -4 5 -20 -12 -13
19 8 42 20 21 34 27 55 22 6 -1 6 2 2 7 -5 4 -14 8 -20 8 -19 0 -15 29 7 48
12 10 15 16 9 12 -7 -3 -13 -1 -13 4 0 15 13 14 28 -1 14 -14 74 3 105 30 9 8
27 20 39 26 12 6 22 19 24 29 1 11 -1 16 -4 12 -4 -4 -7 -12 -7 -17 0 -6 -6
-13 -13 -16 -18 -6 1 31 34 67 13 13 21 29 18 33 -3 5 -1 15 5 22 18 22 41
154 27 159 -7 3 -6 10 4 22 8 10 10 16 4 12 -6 -4 -19 2 -28 12 -14 15 -15 23
-5 47 22 57 28 99 28 199 0 102 -4 144 -17 157 -7 7 -12 19 -12 28 0 9 -5 21
-12 28 -7 7 -9 12 -5 12 3 0 -5 12 -18 26 -13 14 -24 29 -23 33 2 20 -4 30
-15 25 -17 -6 -41 21 -32 35 3 7 0 8 -10 5 -18 -7 -47 14 -38 29 3 5 1 7 -5 3
-6 -3 -17 2 -24 12 -7 9 -26 25 -41 35 -15 10 -25 22 -22 27 3 6 -1 7 -9 4
-10 -4 -28 6 -48 27 -17 19 -28 28 -24 22 9 -16 4 -16 -28 0 -14 8 -23 17 -19
20 3 4 -6 7 -20 7 -14 0 -50 9 -79 21 -29 11 -54 20 -55 20 -2 -1 -13 -1 -25
-1 -19 0 -20 2 -8 10 11 7 6 8 -17 4 -18 -4 -33 -3 -33 2 0 5 -10 9 -22 10
-50 2 -94 8 -103 13 -5 2 -72 6 -150 8 -121 2 -148 0 -202 -19z"/>
<path d="M1310 2415 c0 -8 2 -15 4 -15 2 0 6 7 10 15 3 8 1 15 -4 15 -6 0 -10
-7 -10 -15z"/>
<path d="M2205 2341 c-3 -5 -2 -12 3 -15 5 -3 9 1 9 9 0 17 -3 19 -12 6z"/>
<path d="M2416 2183 c-6 -14 -5 -15 5 -6 7 7 10 15 7 18 -3 3 -9 -2 -12 -12z"/>
<path d="M973 1915 c-3 -9 -3 -18 -1 -21 3 -3 8 4 11 16 6 23 -1 27 -10 5z"/>
<path d="M1000 1870 c0 -5 5 -10 11 -10 5 0 7 5 4 10 -3 6 -8 10 -11 10 -2 0
-4 -4 -4 -10z"/>
<path d="M2513 1615 c0 -8 4 -12 9 -9 5 3 6 10 3 15 -9 13 -12 11 -12 -6z"/>
<path d="M340 1370 c8 -5 20 -10 25 -10 6 0 3 5 -5 10 -8 5 -19 10 -25 10 -5
0 -3 -5 5 -10z"/>
<path d="M315 1289 c-4 -6 -5 -12 -2 -15 2 -3 7 2 10 11 7 17 1 20 -8 4z"/>
<path d="M95 1161 c-3 -5 -2 -12 3 -15 5 -3 9 1 9 9 0 17 -3 19 -12 6z"/>
<path d="M1095 1080 c-3 -5 -1 -10 4 -10 6 0 11 5 11 10 0 6 -2 10 -4 10 -3 0
-8 -4 -11 -10z"/>
<path d="M2195 1030 c-3 -5 -1 -10 4 -10 6 0 11 5 11 10 0 6 -2 10 -4 10 -3 0
-8 -4 -11 -10z"/>
<path d="M2150 1016 c7 -7 13 -7 20 0 6 6 3 10 -10 10 -13 0 -16 -4 -10 -10z"/>
<path d="M136 908 c3 -5 10 -6 15 -3 13 9 11 12 -6 12 -8 0 -12 -4 -9 -9z"/>
<path d="M606 871 c-14 -15 -15 -21 -4 -27 7 -4 10 -3 5 1 -4 5 0 17 10 27 9
10 14 18 11 18 -3 0 -13 -9 -22 -19z"/>
<path d="M909 857 c6 -8 7 -18 3 -22 -4 -5 -1 -5 6 -1 10 6 10 11 1 22 -6 8
-14 14 -16 14 -3 0 0 -6 6 -13z"/>
<path d="M526 187 c3 -10 9 -15 12 -12 3 3 0 11 -7 18 -10 9 -11 8 -5 -6z"/>
<path d="M613 75 c0 -8 4 -12 9 -9 5 3 6 10 3 15 -9 13 -12 11 -12 -6z"/>
</g>
</svg>
