<?xml version="1.0" standalone="no"?>
<!DOCTYPE svg PUBLIC "-//W3C//DTD SVG 20010904//EN"
 "http://www.w3.org/TR/2001/REC-SVG-20010904/DTD/svg10.dtd">
<svg version="1.0" xmlns="http://www.w3.org/2000/svg"
 width="180.000000pt" height="180.000000pt" viewBox="0 0 180.000000 180.000000"
 preserveAspectRatio="xMidYMid meet">

<g transform="translate(0.000000,180.000000) scale(0.100000,-0.100000)"
fill="#000000" stroke="none">
<path d="M954 1566 c-28 -13 -66 -27 -84 -31 -42 -9 -108 -70 -131 -120 -22
-47 -24 -88 -7 -149 10 -38 8 -64 -10 -173 -12 -70 -22 -139 -22 -153 0 -32
46 -112 100 -173 56 -63 51 -78 -30 -91 -32 -5 -43 -17 -105 -111 -39 -57 -73
-105 -77 -105 -4 0 -22 28 -39 63 -17 34 -42 73 -55 86 -22 22 -22 25 -9 52 8
15 15 41 15 57 0 16 8 40 19 53 10 13 16 30 14 37 -8 22 -41 12 -67 -20 -31
-40 -40 -32 -56 52 -16 77 -18 82 -37 78 -15 -3 -18 -14 -17 -66 0 -34 0 -62
-1 -62 -1 0 -16 23 -33 50 -33 53 -42 59 -62 35 -10 -12 -7 -23 14 -60 29 -49
25 -56 -14 -25 -31 24 -49 25 -57 4 -4 -12 5 -26 28 -45 l34 -28 -40 2 c-55 3
-53 -22 3 -49 46 -22 121 -99 122 -124 0 -30 73 -236 105 -301 40 -79 53 -90
109 -96 41 -5 47 -2 90 37 49 46 55 43 31 -13 -8 -20 -15 -39 -15 -42 0 -3 34
-5 75 -5 60 0 75 3 75 15 0 19 14 19 30 0 7 -8 20 -15 29 -15 11 1 6 9 -17 30
-18 17 -29 30 -24 30 5 0 21 -13 37 -30 16 -16 36 -30 44 -30 9 0 -1 17 -28
44 l-43 44 6 63 c3 42 2 55 -3 39 -5 -14 -9 -39 -10 -56 -1 -18 -10 -42 -21
-55 l-19 -24 14 55 c8 30 15 72 15 93 0 21 10 57 21 79 20 40 21 44 6 88 -29
82 -38 130 -29 146 7 12 9 8 10 -17 1 -43 22 -128 33 -135 13 -8 11 23 -6 85
-7 30 -11 67 -8 82 10 52 23 30 23 -38 1 -38 5 -86 9 -108 23 -106 24 -111 8
-93 -18 23 -27 23 -27 0 0 -23 35 -56 49 -48 5 4 13 2 16 -4 5 -8 11 -7 21 1
18 15 8 30 -14 22 -24 -10 40 69 86 105 60 46 104 70 155 83 46 11 82 43 71
61 -3 5 -14 6 -25 3 -11 -4 -19 -2 -19 4 0 18 56 12 81 -8 20 -16 22 -21 9
-36 -12 -15 -81 -55 -94 -55 -3 0 -2 7 1 17 7 18 11 20 -77 -36 -68 -43 -155
-126 -141 -135 5 -4 31 9 57 29 47 36 84 59 84 52 0 -2 -20 -42 -44 -88 -48
-92 -86 -194 -86 -234 l0 -25 255 0 c140 0 255 3 255 8 0 4 -7 90 -16 192 -17
200 -21 210 -80 235 -18 7 -35 23 -39 34 -3 12 -10 21 -14 21 -9 0 -74 60 -69
64 2 2 31 16 66 31 64 29 108 69 118 109 4 18 11 22 33 18 23 -3 34 4 63 37
20 23 43 66 53 96 15 50 15 57 1 86 -10 20 -12 37 -7 48 17 32 23 120 11 174
-13 64 -36 98 -110 161 -75 64 -158 103 -270 126 -133 28 -231 26 -296 -4z
m-14 -86 c8 6 23 10 33 10 14 0 17 -5 12 -22 -7 -21 -6 -21 80 -14 76 5 86 4
76 -8 -11 -13 -7 -14 26 -9 21 3 53 12 71 19 27 11 39 11 73 -1 117 -42 155
-127 109 -246 -18 -48 -18 -54 -4 -81 9 -17 16 -54 16 -84 1 -53 1 -54 30 -54
38 0 88 22 112 49 27 30 36 26 36 -14 0 -41 -31 -106 -66 -142 -22 -22 -25
-23 -53 -9 l-28 15 -6 -42 c-4 -32 -14 -49 -40 -72 -101 -87 -372 -130 -497
-79 -61 26 -173 154 -195 223 -7 22 12 181 22 181 2 0 11 -7 19 -15 9 -8 25
-15 37 -15 12 -1 47 -11 77 -24 63 -28 82 -23 99 25 33 96 -16 159 -126 159
-27 0 -58 -7 -69 -15 -20 -13 -21 -13 -16 11 7 40 44 48 123 29 87 -21 114
-18 114 15 0 22 -6 25 -60 37 -84 17 -109 16 -139 -8 -34 -27 -34 -11 2 66 30
62 99 135 111 116 4 -6 12 -7 21 -1z m-94 -291 c-40 -32 -34 -79 14 -97 33
-12 67 1 82 33 9 21 8 28 -7 45 -10 11 -13 20 -7 20 19 0 42 -43 42 -80 0 -46
-20 -75 -46 -67 -153 50 -159 53 -161 83 -4 44 36 83 86 84 l24 0 -27 -21z
m30 -35 c-6 -17 -8 -17 -24 0 -15 15 -15 18 -2 26 19 12 35 -3 26 -26z m-491
-281 c3 -16 12 -51 21 -80 13 -47 13 -55 -1 -84 -12 -22 -14 -34 -6 -42 8 -8
11 -5 11 10 0 23 77 123 96 123 9 0 7 -11 -6 -37 -10 -21 -22 -56 -27 -78 -7
-34 -15 -44 -58 -67 -27 -15 -54 -28 -58 -28 -4 0 -27 19 -50 43 -23 24 -57
49 -74 56 -48 19 -40 33 8 16 83 -30 90 -16 20 40 -64 50 -55 67 10 19 28 -20
53 -33 57 -30 3 4 -9 34 -27 67 -18 33 -30 63 -26 67 3 4 10 0 15 -8 5 -8 22
-34 40 -58 33 -46 54 -47 46 -4 -15 82 -16 102 -7 102 6 0 13 -12 16 -27z
m805 -240 c0 -14 -7 -26 -17 -29 -63 -21 -136 -65 -185 -112 -63 -60 -61 -61
-78 32 -15 86 -13 126 5 126 8 0 15 -8 16 -17 0 -16 2 -16 14 2 13 18 26 20
130 21 114 0 115 0 115 -23z m-763 -54 c-22 -11 -41 -18 -44 -16 -6 7 48 36
67 36 8 0 -2 -9 -23 -20z"/>
<path d="M1110 1251 c0 -30 22 -41 115 -56 51 -8 95 -21 106 -31 18 -16 19
-16 19 4 0 42 -41 73 -116 88 -99 19 -124 18 -124 -5z"/>
<path d="M1109 1141 c-23 -24 -29 -38 -29 -75 0 -63 15 -74 99 -74 38 0 79 -3
91 -7 52 -17 99 66 69 122 -19 35 -83 63 -147 63 -46 0 -58 -4 -83 -29z m66
-11 c-41 -45 -9 -110 55 -110 49 0 75 28 66 72 l-6 33 20 -24 c23 -26 26 -73
7 -89 -7 -7 -51 -9 -111 -7 -111 4 -123 11 -112 70 7 37 47 75 79 75 19 0 19
-1 2 -20z m52 -16 c8 -22 -18 -37 -36 -20 -7 8 -10 19 -7 25 10 16 36 13 43
-5z"/>
<path d="M777 953 c-4 -3 -7 -18 -7 -32 0 -21 2 -23 10 -11 8 12 16 8 45 -27
44 -51 120 -82 220 -90 73 -6 104 0 194 36 44 18 52 19 48 6 -4 -8 -2 -15 2
-15 15 0 20 27 8 43 -15 18 -47 30 -47 17 0 -6 5 -10 11 -10 5 0 7 -4 4 -10
-10 -15 -71 -12 -175 11 -52 11 -135 27 -185 35 -99 17 -134 34 -94 45 l24 7
-26 1 c-14 1 -29 -2 -32 -6z m193 -74 c52 -11 129 -26 170 -33 l75 -12 -40
-14 c-91 -32 -256 -6 -318 50 l-32 29 25 1 c14 0 68 -9 120 -21z"/>
<path d="M945 940 c3 -5 13 -10 21 -10 8 0 12 5 9 10 -3 6 -13 10 -21 10 -8 0
-12 -4 -9 -10z"/>
<path d="M1005 930 c3 -5 13 -10 21 -10 8 0 14 5 14 10 0 6 -9 10 -21 10 -11
0 -17 -4 -14 -10z"/>
<path d="M861 364 c0 -11 3 -14 6 -6 3 7 2 16 -1 19 -3 4 -6 -2 -5 -13z"/>
</g>
</svg>
